# xmcd
#
# Track frame offsets:
# 150
# 14337
# 32893
# 45176
# 61293
# 74365
# 84696
# 96606
# 110412
# 125095
# 139817
#
# Disc length: 2120 seconds
#
#
# Revision: 2
# Processed by: cddbd v1.5.1PL2 Copyright (c) Steve Scherf et al.
# Submitted via: FreeRIP 2.943 
#
DISCID=9c08460b
DTITLE=Rick Trevino - Looking For The Light
DYEAR=1995
DGENRE=Country
TTITLE0=Full Deck Of Cards
TTITLE1=Looking For The Light
TTITLE2=Family Reunion
TTITLE3=You Are To Me
TTITLE4=She Used To Say That To Me
TTITLE5=Poor, Broke, Mixed Up Mess Of A Heart
TTITLE6=I Want A Girl In A Pick-Up Truck
TTITLE7=Save This One For Me
TTITLE8=The Pain
TTITLE9=Bobbie Ann Mason
TTITLE10=San Antonio Rose To You
EXTD=
EXTT0=
EXTT1=
EXTT2=
EXTT3=
EXTT4=
EXTT5=
EXTT6=
EXTT7=
EXTT8=
EXTT9=
EXTT10=
PLAYORDER=
